<?xml version="1.0" encoding="UTF-8"?>
<svg xmlns="http://www.w3.org/2000/svg" xmlns:xlink="http://www.w3.org/1999/xlink" width="20px" height="20px" viewBox="0 0 20 20" version="1.1">
<g id="surface1">
<path style=" stroke:none;fill-rule:nonzero;fill:rgb(32.54902%,75.686275%,87.058824%);fill-opacity:1;" d="M 11.675781 9.984375 C 11.675781 9.089844 10.925781 8.363281 10 8.363281 C 9.074219 8.363281 8.324219 9.089844 8.324219 9.984375 C 8.324219 10.882812 9.074219 11.609375 10 11.609375 C 10.925781 11.609375 11.675781 10.882812 11.675781 9.984375 Z M 11.675781 9.984375 "/>
<path style=" stroke:none;fill-rule:evenodd;fill:rgb(32.54902%,75.686275%,87.058824%);fill-opacity:1;" d="M 15.4375 6.972656 C 15.792969 5.578125 16.234375 2.996094 14.667969 2.117188 C 13.109375 1.246094 11.082031 2.917969 10.007812 3.921875 C 8.941406 2.929688 6.855469 1.265625 5.289062 2.144531 C 3.730469 3.015625 4.210938 5.558594 4.570312 6.960938 C 3.117188 7.359375 0.625 8.222656 0.625 9.984375 C 0.625 11.742188 3.113281 12.679688 4.5625 13.082031 C 4.199219 14.488281 3.742188 16.996094 5.300781 17.867188 C 6.875 18.746094 8.953125 17.121094 10.035156 16.109375 C 11.113281 17.117188 13.121094 18.75 14.683594 17.875 C 16.246094 16.996094 15.839844 14.449219 15.476562 13.039062 C 16.878906 12.636719 19.375 11.71875 19.375 9.984375 C 19.375 8.238281 16.867188 7.371094 15.4375 6.972656 Z M 15.261719 12.292969 C 15.023438 11.5625 14.703125 10.789062 14.3125 9.988281 C 14.683594 9.207031 14.992188 8.441406 15.222656 7.71875 C 16.273438 8.015625 18.574219 8.6875 18.574219 9.984375 C 18.574219 11.292969 16.367188 11.972656 15.261719 12.292969 Z M 14.28125 17.203125 C 13.117188 17.855469 11.390625 16.292969 10.59375 15.550781 C 11.121094 14.992188 11.648438 14.339844 12.164062 13.617188 C 13.070312 13.539062 13.925781 13.410156 14.703125 13.234375 C 14.957031 14.234375 15.449219 16.546875 14.28125 17.203125 Z M 5.703125 17.195312 C 4.539062 16.542969 5.070312 14.308594 5.335938 13.269531 C 6.105469 13.4375 6.957031 13.554688 7.863281 13.625 C 8.382812 14.332031 8.925781 14.984375 9.472656 15.554688 C 8.796875 16.1875 6.871094 17.847656 5.703125 17.195312 Z M 1.425781 9.984375 C 1.425781 8.671875 3.714844 8.003906 4.785156 7.707031 C 5.023438 8.449219 5.328125 9.222656 5.699219 10.003906 C 5.324219 10.796875 5.011719 11.582031 4.777344 12.332031 C 3.753906 12.046875 1.425781 11.300781 1.425781 9.984375 Z M 5.691406 2.816406 C 6.859375 2.160156 8.671875 3.757812 9.449219 4.476562 C 8.902344 5.042969 8.363281 5.6875 7.851562 6.390625 C 6.96875 6.472656 6.125 6.597656 5.347656 6.769531 C 5.058594 5.636719 4.523438 3.46875 5.691406 2.816406 Z M 12.738281 7.234375 C 13.335938 7.308594 13.910156 7.40625 14.445312 7.523438 C 14.285156 8.027344 14.082031 8.550781 13.847656 9.089844 C 13.503906 8.457031 13.132812 7.839844 12.738281 7.234375 Z M 10.007812 5.03125 C 10.378906 5.417969 10.75 5.851562 11.113281 6.320312 C 10.375 6.289062 9.632812 6.289062 8.894531 6.320312 C 9.261719 5.855469 9.632812 5.421875 10.007812 5.03125 Z M 6.160156 9.089844 C 5.925781 8.554688 5.726562 8.027344 5.566406 7.515625 C 6.097656 7.402344 6.671875 7.304688 7.265625 7.234375 C 6.867188 7.835938 6.5 8.457031 6.160156 9.089844 Z M 7.28125 12.792969 C 6.667969 12.726562 6.089844 12.632812 5.554688 12.523438 C 5.71875 12.003906 5.921875 11.464844 6.160156 10.917969 C 6.503906 11.558594 6.878906 12.183594 7.28125 12.792969 Z M 10.03125 14.996094 C 9.652344 14.597656 9.273438 14.15625 8.902344 13.6875 C 9.644531 13.714844 10.390625 13.714844 11.132812 13.683594 C 10.765625 14.164062 10.398438 14.601562 10.03125 14.996094 Z M 13.855469 10.890625 C 14.105469 11.441406 14.316406 11.980469 14.484375 12.488281 C 13.941406 12.609375 13.351562 12.707031 12.734375 12.777344 C 13.132812 12.164062 13.507812 11.535156 13.855469 10.890625 Z M 11.71875 12.871094 C 10.582031 12.949219 9.4375 12.949219 8.300781 12.878906 C 7.65625 11.964844 7.082031 11 6.585938 10.003906 C 7.078125 9.007812 7.648438 8.046875 8.292969 7.136719 C 9.429688 7.050781 10.574219 7.050781 11.710938 7.136719 C 12.347656 8.046875 12.917969 9.003906 13.421875 9.992188 C 12.921875 10.988281 12.351562 11.949219 11.71875 12.871094 Z M 14.269531 2.792969 C 15.4375 3.445312 14.917969 5.765625 14.664062 6.777344 C 13.882812 6.601562 13.039062 6.472656 12.15625 6.390625 C 11.640625 5.679688 11.105469 5.035156 10.570312 4.476562 C 11.355469 3.742188 13.109375 2.144531 14.269531 2.792969 Z M 14.269531 2.792969 "/>
</g>
</svg>
