<?xml version="1.0" encoding="UTF-8"?>
<svg xmlns="http://www.w3.org/2000/svg" xmlns:xlink="http://www.w3.org/1999/xlink" width="20px" height="20px" viewBox="0 0 20 20" version="1.1">
<g id="surface1">
<path style=" stroke:none;fill-rule:evenodd;fill:rgb(7.058824%,9.803922%,13.72549%);fill-opacity:1;" d="M 16 4 L 4 4 L 4 16 L 16 16 Z M 8.863281 14.398438 L 7.859375 14.398438 L 7.859375 10.433594 L 6.421875 10.433594 L 6.421875 9.609375 L 10.300781 9.609375 L 10.300781 10.433594 L 8.863281 10.433594 Z M 14.632812 12.972656 C 14.632812 13.921875 13.894531 14.523438 12.699219 14.523438 C 11.554688 14.523438 10.828125 13.976562 10.773438 13.125 L 10.769531 13.070312 L 11.734375 13.070312 L 11.738281 13.105469 C 11.777344 13.464844 12.164062 13.707031 12.726562 13.707031 C 13.261719 13.707031 13.628906 13.449219 13.628906 13.082031 L 13.628906 13.078125 C 13.628906 12.761719 13.394531 12.585938 12.796875 12.464844 L 12.292969 12.363281 C 11.296875 12.160156 10.871094 11.695312 10.871094 10.96875 L 10.871094 10.964844 C 10.871094 10.074219 11.632812 9.484375 12.695312 9.484375 C 13.816406 9.484375 14.472656 10.078125 14.535156 10.878906 L 14.539062 10.921875 L 13.59375 10.921875 L 13.589844 10.878906 C 13.53125 10.539062 13.199219 10.300781 12.695312 10.300781 C 12.199219 10.300781 11.871094 10.527344 11.871094 10.886719 L 11.871094 10.890625 C 11.871094 11.203125 12.105469 11.386719 12.667969 11.503906 L 13.175781 11.609375 C 14.191406 11.816406 14.632812 12.222656 14.632812 12.96875 Z M 14.632812 12.972656 "/>
</g>
</svg>
